<svg id="Layer_1" data-name="Layer 1" xmlns="http://www.w3.org/2000/svg" viewBox="0 0 100 48"><defs><style>.cls-1{fill:#009cde;}.cls-2{fill:#003087;}.cls-3{fill:#012169;}</style></defs><title>paypal-logo</title><path class="cls-1" d="M70.8,18.84H66.56a.59.59,0,0,0-.58.5L64.27,30.19a.35.35,0,0,0,.35.41h2.17a.41.41,0,0,0,.41-.35l.49-3.08a.59.59,0,0,1,.58-.5h1.34c2.79,0,4.4-1.35,4.82-4a3.26,3.26,0,0,0-.54-2.73A3.93,3.93,0,0,0,70.8,18.84Zm.49,4c-.23,1.52-1.39,1.52-2.51,1.52h-.64l.45-2.84a.35.35,0,0,1,.35-.3h.29c.76,0,1.49,0,1.86.44A1.41,1.41,0,0,1,71.29,22.8Z"/><path class="cls-2" d="M40.6,18.84H36.37a.59.59,0,0,0-.58.5L34.07,30.19a.35.35,0,0,0,.35.41h2a.59.59,0,0,0,.58-.5l.46-2.93a.59.59,0,0,1,.58-.5h1.34c2.79,0,4.4-1.35,4.82-4a3.26,3.26,0,0,0-.54-2.73A3.93,3.93,0,0,0,40.6,18.84Zm.49,4c-.23,1.52-1.39,1.52-2.51,1.52h-.64l.45-2.84a.35.35,0,0,1,.35-.3H39c.76,0,1.49,0,1.86.44A1.41,1.41,0,0,1,41.09,22.8Z"/><path class="cls-2" d="M53.26,22.75h-2a.35.35,0,0,0-.35.3l-.09.57-.14-.21a2.89,2.89,0,0,0-2.39-.85,4.66,4.66,0,0,0-4.53,4.08,3.83,3.83,0,0,0,.75,3.11,3.17,3.17,0,0,0,2.55,1,3.88,3.88,0,0,0,2.81-1.16l-.09.56a.35.35,0,0,0,.35.41h1.83a.59.59,0,0,0,.58-.5l1.1-6.94A.35.35,0,0,0,53.26,22.75ZM50.43,26.7a2.26,2.26,0,0,1-2.29,1.94,1.57,1.57,0,0,1-1.68-2,2.27,2.27,0,0,1,2.27-2,1.71,1.71,0,0,1,1.35.55A1.75,1.75,0,0,1,50.43,26.7Z"/><path class="cls-1" d="M83.45,22.75h-2a.35.35,0,0,0-.35.3l-.09.57-.14-.21a2.89,2.89,0,0,0-2.39-.85,4.66,4.66,0,0,0-4.53,4.08,3.83,3.83,0,0,0,.75,3.11,3.17,3.17,0,0,0,2.55,1A3.88,3.88,0,0,0,80,29.63l-.09.56a.35.35,0,0,0,.35.41h1.83a.59.59,0,0,0,.58-.5l1.1-6.94A.35.35,0,0,0,83.45,22.75ZM80.63,26.7a2.26,2.26,0,0,1-2.29,1.94,1.57,1.57,0,0,1-1.68-2,2.27,2.27,0,0,1,2.27-2,1.71,1.71,0,0,1,1.35.55A1.75,1.75,0,0,1,80.63,26.7Z"/><path class="cls-2" d="M64.05,22.75H62a.59.59,0,0,0-.49.26l-2.81,4.14-1.19-4a.59.59,0,0,0-.56-.42H55a.35.35,0,0,0-.33.47l2.24,6.59-2.11,3a.35.35,0,0,0,.29.56h2a.59.59,0,0,0,.48-.25l6.78-9.78A.35.35,0,0,0,64.05,22.75Z"/><path class="cls-1" d="M85.84,19.13,84.1,30.19a.35.35,0,0,0,.35.41H86.2a.59.59,0,0,0,.58-.5L88.5,19.24a.35.35,0,0,0-.35-.41h-2A.35.35,0,0,0,85.84,19.13Z"/><path class="cls-1" d="M25.77,19.41A3.71,3.71,0,0,0,25,16.07c-.87-1-2.43-1.41-4.43-1.41H14.74a.83.83,0,0,0-.82.7L11.51,30.69a.5.5,0,0,0,.49.58h3.58l-.25,1.57a.44.44,0,0,0,.43.5h3a.73.73,0,0,0,.72-.61l0-.15L20.1,29l0-.2a.73.73,0,0,1,.72-.61h.45c2.93,0,5.22-1.19,5.89-4.63a3.94,3.94,0,0,0-.6-3.48,2.88,2.88,0,0,0-.83-.64h0"/><path class="cls-3" d="M25.77,19.41A3.71,3.71,0,0,0,25,16.07c-.87-1-2.43-1.41-4.43-1.41H14.74a.83.83,0,0,0-.82.7L11.51,30.69a.5.5,0,0,0,.49.58h3.58l.9-5.71,0,.18a.83.83,0,0,1,.82-.7H19c3.35,0,6-1.36,6.73-5.29,0-.12,0-.23.06-.34"/><path class="cls-2" d="M17.45,19.42a.73.73,0,0,1,.72-.61h4.55a9.49,9.49,0,0,1,1.5.11l.38.07.36.09.17.05a4.1,4.1,0,0,1,.63.27A3.71,3.71,0,0,0,25,16.07c-.87-1-2.43-1.41-4.43-1.41H14.74a.83.83,0,0,0-.82.7L11.51,30.69a.5.5,0,0,0,.49.58h3.58l.9-5.71Z"/></svg>